<svg xmlns="http://www.w3.org/2000/svg" viewBox="0 0 512 512"><circle style="fill:#d83e20" cx="256" cy="256" r="256"/><path style="fill:#c1321f" d="M506.082 310.887 365.997 170.803l-174.93 120.823-79.672 45.192 173.542 173.544c109.465-12.317 198.026-93.653 221.145-199.475"/><path style="fill:#cfdbe6" d="M253.597 337.086c5.454 3.088 12.379 1.169 15.467-4.286l28.024-49.509c27.865-49.23 10.547-111.73-38.683-139.595-5.454-3.088-12.379-1.169-15.467 4.286l-28.024 49.509c-27.867 49.231-10.548 111.729 38.683 139.595"/><path style="fill:#b8c9d9" d="M258.403 143.696a11.3 11.3 0 0 0-3.551-1.279v195.272c5.222 2.167 11.357.155 14.212-4.889l28.024-49.509c27.865-49.229 10.546-111.728-38.685-139.595"/><path style="fill:#cfdbe6" d="M252.821 338.029c4.572-4.289 4.801-11.471.512-16.043l-38.924-41.489c-38.705-41.257-103.526-43.323-144.782-4.618-4.572 4.289-4.801 11.471-.512 16.043l38.924 41.489c38.707 41.256 103.527 43.323 144.782 4.618"/><path style="fill:#b8c9d9" d="M259.179 338.029c-4.572-4.289-4.801-11.471-.512-16.043l38.924-41.489c38.705-41.257 103.526-43.323 144.782-4.618 4.572 4.289 4.801 11.471.512 16.043l-38.924 41.489c-38.707 41.256-103.527 43.323-144.782 4.618"/><path style="fill:#e6f3ff" d="M267.348 348.517c-6.268 0-11.348-5.08-11.348-11.348v-66.844c0-56.57 45.859-102.429 102.429-102.429 6.268 0 11.348 5.08 11.348 11.348v66.844c.001 56.57-45.859 102.429-102.429 102.429"/><path style="fill:#fff" d="M244.652 348.517c6.268 0 11.348-5.08 11.348-11.348v-66.844c0-56.57-45.859-102.429-102.429-102.429-6.268 0-11.348 5.08-11.348 11.348v66.844c-.001 56.57 45.859 102.429 102.429 102.429"/></svg>